<?xml version="1.0" encoding="utf-8"?>
<!-- Generator: Adobe Illustrator 16.0.0, SVG Export Plug-In . SVG Version: 6.00 Build 0)  -->
<!DOCTYPE svg PUBLIC "-//W3C//DTD SVG 1.1//EN" "http://www.w3.org/Graphics/SVG/1.1/DTD/svg11.dtd">
<svg version="1.1" id="图层_1" xmlns="http://www.w3.org/2000/svg" xmlns:xlink="http://www.w3.org/1999/xlink" x="0px" y="0px"
	 width="48px" height="48px" viewBox="0 0 48 48" enable-background="new 0 0 48 48" xml:space="preserve">
<title>decision_1</title>
<g id="图层_2">
	<g id="图层_1-2">
		<path fill="#E6F7F7" stroke="#5FD2D1" stroke-miterlimit="10" d="M26.465,1.246l20.289,20.29c1.35,1.349,1.35,3.529,0,4.878
			L26.413,46.754c-1.349,1.35-3.529,1.35-4.878,0L1.246,26.465c-1.35-1.35-1.35-3.529,0-4.878L21.587,1.246
			C22.936-0.052,25.115-0.052,26.465,1.246z"/>
	</g>
</g>
<line fill="none" x1="16.086" y1="16.086" x2="32.173" y2="32.173"/>
<line fill="none" x1="74.725" y1="47.74" x2="92.627" y2="27.348"/>
<path fill="#13C2C2" d="M19.569,23.304h9.948c0.426,0,0.711,0.284,0.711,0.71s-0.285,0.71-0.711,0.71h-9.948
	c-0.426,0-0.711-0.284-0.711-0.71S19.143,23.304,19.569,23.304z M19.569,19.04h9.948c0.426,0,0.711,0.284,0.711,0.711
	c0,0.426-0.285,0.71-0.711,0.71h-9.948c-0.426,0-0.711-0.284-0.711-0.71C18.858,19.324,19.143,19.04,19.569,19.04z M19.924,31.76
	l4.122-3.198c0.284-0.213,0.569-0.284,0.852-0.284h7.817c0.426,0,0.711-0.284,0.711-0.71v-11.37c0-0.426-0.285-0.71-0.711-0.71
	H16.371c-0.426,0-0.71,0.284-0.71,0.71v11.37c0,0.426,0.284,0.71,0.71,0.71h2.132c0.782,0,1.421,0.64,1.421,1.421V31.76
	L19.924,31.76z M24.897,29.698l-4.689,3.624c-0.498,0.356-1.137,0.285-1.493-0.212c-0.142-0.214-0.213-0.428-0.213-0.64v-2.772
	h-2.132c-1.208,0-2.132-0.924-2.132-2.131v-11.37c0-1.208,0.924-2.132,2.132-2.132h16.344c1.208,0,2.131,0.924,2.131,2.132v11.37
	c0,1.207-0.923,2.131-2.131,2.131H24.897z"/>
</svg>
