<?xml version="1.0" encoding="utf-8"?>
<!-- Generator: Adobe Illustrator 16.0.0, SVG Export Plug-In . SVG Version: 6.00 Build 0)  -->
<!DOCTYPE svg PUBLIC "-//W3C//DTD SVG 1.1//EN" "http://www.w3.org/Graphics/SVG/1.1/DTD/svg11.dtd">
<svg version="1.1" id="图层_1" xmlns="http://www.w3.org/2000/svg" xmlns:xlink="http://www.w3.org/1999/xlink" x="0px" y="0px"
	 width="48px" height="48px" viewBox="0 0 48 48" enable-background="new 0 0 48 48" xml:space="preserve">
<title>decision_1</title>
<g id="图层_2">
	<g id="图层_1-2">
		<path fill="#E6F7F7" stroke="#5FD2D1" stroke-miterlimit="10" d="M26.465,1.246l20.289,20.29c1.35,1.349,1.35,3.529,0,4.878
			L26.413,46.754c-1.349,1.35-3.529,1.35-4.878,0L1.246,26.465c-1.35-1.35-1.35-3.529,0-4.878L21.587,1.246
			C22.936-0.052,25.115-0.052,26.465,1.246z"/>
	</g>
</g>
<line fill="none" x1="16.086" y1="16.086" x2="32.173" y2="32.173"/>
<line fill="none" x1="74.725" y1="47.74" x2="92.627" y2="27.348"/>
<path fill="#13C2C2" d="M23.543,28.514c-1.174,0-2.072,0.966-2.072,2.14l0,0c0,1.174,0.967,2.141,2.072,2.141
	c1.174,0,2.071-0.967,2.071-2.141l0,0C25.684,29.479,24.717,28.514,23.543,28.514z M19.124,26.165l1.45,1.52
	c1.588-1.657,4.212-1.657,5.869-0.069c0,0,0,0,0.069,0.069l1.451-1.52C25.614,23.68,21.679,23.68,19.124,26.165
	C19.193,26.097,19.124,26.097,19.124,26.165z M16.155,23.127l1.45,1.52c3.246-3.245,8.493-3.314,11.738-0.069l0.068,0.069
	l1.451-1.52c-4.005-4.074-10.634-4.143-14.708-0.068C16.224,23.059,16.224,23.127,16.155,23.127z M13.186,20.158l1.45,1.52
	c4.833-4.903,12.705-4.972,17.677-0.139c0.068,0.069,0.068,0.069,0.138,0.139l1.45-1.52c-5.662-5.731-14.846-5.8-20.577-0.138
	C13.324,20.089,13.255,20.089,13.186,20.158z"/>
</svg>
