<?xml version="1.0" encoding="utf-8"?>
<!-- Generator: Adobe Illustrator 16.0.0, SVG Export Plug-In . SVG Version: 6.00 Build 0)  -->
<!DOCTYPE svg PUBLIC "-//W3C//DTD SVG 1.1//EN" "http://www.w3.org/Graphics/SVG/1.1/DTD/svg11.dtd">
<svg version="1.1" id="图层_1" xmlns="http://www.w3.org/2000/svg" xmlns:xlink="http://www.w3.org/1999/xlink" x="0px" y="0px"
	 width="48px" height="48px" viewBox="0 0 48 48" enable-background="new 0 0 48 48" xml:space="preserve">
<title>decision_1</title>
<g id="图层_2">
	<g id="图层_1-2">
		<path fill="#E6F7F7" stroke="#5FD2D1" stroke-miterlimit="10" d="M26.465,1.246l20.289,20.29c1.35,1.349,1.35,3.529,0,4.878
			L26.413,46.754c-1.349,1.35-3.529,1.35-4.878,0L1.246,26.465c-1.35-1.35-1.35-3.529,0-4.878L21.587,1.246
			C22.936-0.052,25.115-0.052,26.465,1.246z"/>
	</g>
</g>
<line fill="none" x1="16.086" y1="16.086" x2="32.173" y2="32.173"/>
<line fill="none" x1="74.725" y1="47.74" x2="92.627" y2="27.348"/>
<path fill="#13C2C2" d="M23.886,14.515c-5.238,0-9.486,4.247-9.486,9.485c0,5.239,4.248,9.485,9.486,9.485
	c5.239,0,9.486-4.246,9.486-9.485C33.372,18.761,29.125,14.515,23.886,14.515z M23.886,31.645c-4.247,0-7.646-3.396-7.646-7.645
	c0-4.248,3.398-7.646,7.646-7.646c4.248,0,7.645,3.398,7.645,7.646C31.53,28.248,28.062,31.645,23.886,31.645z M26.222,27.61
	l-3.256-2.337c-0.142-0.069-0.212-0.211-0.212-0.354v-6.3c0-0.283,0.212-0.424,0.424-0.424h1.204c0.283,0,0.424,0.212,0.424,0.424
	V24l2.549,1.841c0.212,0.142,0.283,0.425,0.07,0.638l-0.708,0.991C26.717,27.752,26.435,27.752,26.222,27.61z"/>
</svg>
